<svg id="svg" version="1.1" xmlns="http://www.w3.org/2000/svg" xmlns:xlink="http://www.w3.org/1999/xlink" width="400" height="400" viewBox="0, 0, 400,400"><g id="svgg"><path id="path0" d="M74.928 25.275 C 73.015 26.201,73.000 26.427,73.000 55.089 L 73.000 81.978 73.911 82.889 L 74.822 83.800 156.729 84.000 C 248.871 84.225,240.800 83.924,240.800 87.137 C 240.800 89.270,239.441 91.358,227.558 107.493 C 208.654 133.162,193.517 153.722,185.810 164.200 C 177.027 176.141,124.854 247.021,96.597 285.400 C 86.068 299.700,73.682 316.530,69.071 322.800 C 58.163 337.633,59.400 333.394,59.400 355.935 L 59.400 374.870 60.344 375.635 C 61.503 376.574,336.530 376.870,338.583 375.935 C 340.391 375.111,340.451 374.097,340.321 346.478 C 340.194 319.321,340.172 318.982,338.446 318.122 C 338.091 317.945,299.010 317.710,251.600 317.600 C 153.612 317.373,162.340 317.705,162.081 314.191 C 161.919 311.982,154.963 321.817,251.611 187.600 C 299.217 121.490,338.714 66.410,339.383 65.200 L 340.600 63.000 340.730 48.109 C 340.881 30.832,340.591 27.067,339.008 25.706 L 337.955 24.800 206.878 24.827 C 115.936 24.846,75.533 24.983,74.928 25.275 " stroke="none" fill="#f9f8f8" fill-rule="evenodd"></path><path id="path1" d="M10.981 1.296 C 7.989 3.278,4.095 7.097,1.941 10.163 L -0.000 12.925 0.000 199.984 L 0.000 387.043 1.159 388.870 C 2.829 391.505,7.384 396.205,10.241 398.244 L 12.702 400.000 200.000 400.000 L 387.298 400.000 389.749 398.245 C 392.562 396.230,396.861 391.864,398.725 389.128 L 400.000 387.256 400.000 200.106 L 400.000 12.957 398.829 11.110 C 397.100 8.384,392.237 3.424,389.501 1.598 L 387.109 0.000 200.023 0.000 L 12.937 0.000 10.981 1.296 M341.400 20.600 C 342.573 21.187,343.267 21.933,344.000 23.400 L 345.000 25.400 345.130 41.200 C 345.278 59.271,344.999 63.465,343.445 66.460 C 342.553 68.179,320.731 98.668,274.204 163.200 C 268.891 170.570,259.233 183.980,252.744 193.000 C 246.254 202.020,226.366 229.650,208.548 254.400 C 190.730 279.150,174.497 301.709,172.476 304.532 C 168.908 309.514,168.195 311.161,169.300 311.876 C 169.575 312.054,208.050 312.290,254.800 312.400 C 351.381 312.627,341.593 312.231,343.500 315.994 L 344.400 317.770 344.391 346.585 C 344.381 379.497,344.541 377.886,341.119 379.542 L 339.347 380.400 199.758 380.400 L 60.170 380.400 58.385 379.500 C 54.920 377.753,55.000 378.316,55.000 355.600 C 55.000 333.695,54.913 334.514,57.666 330.496 C 58.837 328.787,64.609 320.923,89.003 287.800 C 93.216 282.080,124.084 240.140,157.599 194.600 C 191.115 149.060,221.787 107.390,225.761 102.000 C 229.735 96.610,233.305 91.577,233.694 90.815 C 235.141 87.979,242.084 88.222,153.286 88.000 C 67.366 87.785,72.217 87.924,70.280 85.623 C 68.635 83.667,68.600 82.998,68.600 53.400 C 68.600 20.529,68.435 21.704,73.257 20.196 C 76.562 19.162,339.316 19.558,341.400 20.600 " stroke="none" fill="#fc0435" fill-rule="evenodd"></path><path id="path2" d="M72.879 21.869 C 70.074 23.251,70.200 21.742,70.200 54.071 C 70.200 82.931,70.206 83.149,71.036 84.271 C 72.888 86.773,66.515 86.581,154.886 86.800 C 245.498 87.025,237.716 86.731,236.150 89.871 C 235.731 90.712,227.367 102.290,217.564 115.600 C 207.760 128.910,173.572 175.350,141.590 218.800 C 109.607 262.250,77.804 305.450,70.916 314.800 C 54.660 336.868,56.623 331.388,56.486 355.079 C 56.359 376.908,56.359 376.904,58.868 378.273 C 60.916 379.390,338.808 379.411,340.512 378.294 C 343.146 376.569,343.000 378.413,343.000 346.818 C 343.000 315.878,343.035 316.397,340.860 314.919 C 339.850 314.234,335.746 314.191,253.761 314.000 C 161.592 313.786,166.400 313.902,166.400 311.886 C 166.400 310.490,166.299 310.632,254.769 187.800 C 302.306 121.800,341.695 66.810,342.300 65.600 L 343.400 63.400 343.400 44.129 C 343.400 22.486,343.540 23.516,340.372 21.901 C 338.323 20.856,74.998 20.825,72.879 21.869 M340.535 22.921 C 342.584 24.263,342.600 24.432,342.600 44.415 L 342.600 63.029 341.394 65.415 C 340.730 66.727,301.682 121.260,254.621 186.600 C 158.410 320.179,164.712 311.319,164.878 312.748 C 165.120 314.834,161.608 314.753,253.000 314.778 C 333.287 314.800,338.281 314.842,339.600 315.501 C 342.308 316.854,342.200 315.554,342.200 346.871 C 342.200 378.823,342.410 376.768,339.023 377.902 C 336.682 378.686,61.051 378.432,59.519 377.645 C 57.227 376.467,57.200 376.212,57.200 355.903 C 57.200 341.167,57.315 336.944,57.758 335.473 C 58.414 333.293,58.213 333.580,76.017 309.400 C 83.631 299.060,105.493 269.360,124.600 243.400 C 163.221 190.926,173.501 176.962,209.408 128.200 C 241.178 85.056,239.477 87.591,237.343 86.559 C 236.916 86.353,202.185 86.115,155.600 86.000 C 93.628 85.847,74.347 85.687,73.521 85.318 C 70.877 84.136,71.000 85.671,71.000 53.947 C 71.000 21.643,70.805 23.657,74.037 22.521 C 76.619 21.614,339.142 22.008,340.535 22.921 " stroke="none" fill="#f94f74" fill-rule="evenodd"></path><path id="path3" d="M73.257 20.196 C 68.435 21.704,68.600 20.529,68.600 53.400 C 68.600 82.998,68.635 83.667,70.280 85.623 C 72.217 87.924,67.366 87.785,153.286 88.000 C 242.084 88.222,235.141 87.979,233.694 90.815 C 233.305 91.577,229.735 96.610,225.761 102.000 C 221.787 107.390,191.115 149.060,157.599 194.600 C 124.084 240.140,93.216 282.080,89.003 287.800 C 64.609 320.923,58.837 328.787,57.666 330.496 C 54.913 334.514,55.000 333.695,55.000 355.600 C 55.000 378.316,54.920 377.753,58.385 379.500 L 60.170 380.400 199.758 380.400 L 339.347 380.400 341.119 379.542 C 344.541 377.886,344.381 379.497,344.391 346.585 L 344.400 317.770 343.500 315.994 C 341.593 312.231,351.381 312.627,254.800 312.400 C 208.050 312.290,169.575 312.054,169.300 311.876 C 168.195 311.161,168.908 309.514,172.476 304.532 C 174.497 301.709,190.730 279.150,208.548 254.400 C 226.366 229.650,246.254 202.020,252.744 193.000 C 259.233 183.980,268.891 170.570,274.204 163.200 C 320.731 98.668,342.553 68.179,343.445 66.460 C 344.999 63.465,345.278 59.271,345.130 41.200 L 345.000 25.400 344.000 23.400 C 343.267 21.933,342.573 21.187,341.400 20.600 C 339.316 19.558,76.562 19.162,73.257 20.196 M340.372 21.901 C 343.540 23.516,343.400 22.486,343.400 44.129 L 343.400 63.400 342.300 65.600 C 341.695 66.810,302.306 121.800,254.769 187.800 C 166.299 310.632,166.400 310.490,166.400 311.886 C 166.400 313.902,161.592 313.786,253.761 314.000 C 335.746 314.191,339.850 314.234,340.860 314.919 C 343.035 316.397,343.000 315.878,343.000 346.818 C 343.000 378.413,343.146 376.569,340.512 378.294 C 338.808 379.411,60.916 379.390,58.868 378.273 C 56.359 376.904,56.359 376.908,56.486 355.079 C 56.623 331.388,54.660 336.868,70.916 314.800 C 77.804 305.450,109.607 262.250,141.590 218.800 C 173.572 175.350,207.760 128.910,217.564 115.600 C 227.367 102.290,235.731 90.712,236.150 89.871 C 237.716 86.731,245.498 87.025,154.886 86.800 C 66.515 86.581,72.888 86.773,71.036 84.271 C 70.206 83.149,70.200 82.931,70.200 54.071 C 70.200 21.742,70.074 23.251,72.879 21.869 C 74.998 20.825,338.323 20.856,340.372 21.901 " stroke="none" fill="#fc3764" fill-rule="evenodd"></path><path id="path4" d="M74.037 22.521 C 70.805 23.657,71.000 21.643,71.000 53.947 C 71.000 85.671,70.877 84.136,73.521 85.318 C 74.347 85.687,93.628 85.847,155.600 86.000 C 202.185 86.115,236.916 86.353,237.343 86.559 C 239.477 87.591,241.178 85.056,209.408 128.200 C 173.501 176.962,163.221 190.926,124.600 243.400 C 105.493 269.360,83.631 299.060,76.017 309.400 C 58.213 333.580,58.414 333.293,57.758 335.473 C 57.315 336.944,57.200 341.167,57.200 355.903 C 57.200 376.212,57.227 376.467,59.519 377.645 C 61.051 378.432,336.682 378.686,339.023 377.902 C 342.410 376.768,342.200 378.823,342.200 346.871 C 342.200 315.554,342.308 316.854,339.600 315.501 C 338.281 314.842,333.287 314.800,253.000 314.778 C 161.608 314.753,165.120 314.834,164.878 312.748 C 164.712 311.319,158.410 320.179,254.621 186.600 C 301.682 121.260,340.730 66.727,341.394 65.415 L 342.600 63.029 342.600 44.415 C 342.600 24.432,342.584 24.263,340.535 22.921 C 339.142 22.008,76.619 21.614,74.037 22.521 M339.008 25.706 C 340.591 27.067,340.881 30.832,340.730 48.109 L 340.600 63.000 339.383 65.200 C 338.714 66.410,299.217 121.490,251.611 187.600 C 154.963 321.817,161.919 311.982,162.081 314.191 C 162.340 317.705,153.612 317.373,251.600 317.600 C 299.010 317.710,338.091 317.945,338.446 318.122 C 340.172 318.982,340.194 319.321,340.321 346.478 C 340.451 374.097,340.391 375.111,338.583 375.935 C 336.530 376.870,61.503 376.574,60.344 375.635 L 59.400 374.870 59.400 355.935 C 59.400 333.394,58.163 337.633,69.071 322.800 C 73.682 316.530,86.068 299.700,96.597 285.400 C 124.854 247.021,177.027 176.141,185.810 164.200 C 193.517 153.722,208.654 133.162,227.558 107.493 C 239.441 91.358,240.800 89.270,240.800 87.137 C 240.800 83.924,248.871 84.225,156.729 84.000 L 74.822 83.800 73.911 82.889 L 73.000 81.978 73.000 55.089 C 73.000 26.427,73.015 26.201,74.928 25.275 C 75.533 24.983,115.936 24.846,206.878 24.827 L 337.955 24.800 339.008 25.706 " stroke="none" fill="#f27c94" fill-rule="evenodd"></path></g></svg>