<svg id="svg" version="1.1" xmlns="http://www.w3.org/2000/svg" xmlns:xlink="http://www.w3.org/1999/xlink" width="400" height="84.55284552845528" viewBox="0, 0, 400,84.55284552845528"><g id="svgg"><path id="path0" d="M16.042 5.784 L 15.667 5.857 15.667 11.499 L 15.667 17.141 16.218 17.323 C 16.599 17.448,21.997 17.517,33.649 17.544 L 50.529 17.583 50.848 17.977 C 51.316 18.554,51.268 19.426,50.750 19.765 C 50.521 19.915,50.333 20.126,50.333 20.233 C 50.333 20.340,50.109 20.688,49.836 21.006 C 49.099 21.861,48.225 23.071,47.923 23.654 C 47.777 23.936,47.587 24.167,47.499 24.167 C 47.412 24.167,47.188 24.448,47.001 24.792 C 46.815 25.135,46.290 25.867,45.834 26.417 C 45.378 26.967,44.880 27.642,44.728 27.917 C 44.575 28.192,44.312 28.515,44.142 28.634 C 43.972 28.754,43.833 28.946,43.833 29.061 C 43.833 29.176,43.515 29.658,43.125 30.133 C 42.116 31.362,41.748 31.859,41.499 32.330 C 41.379 32.558,41.105 32.882,40.890 33.051 C 40.676 33.219,40.500 33.447,40.500 33.557 C 40.500 33.760,39.548 35.039,38.766 35.885 C 38.528 36.143,38.333 36.449,38.333 36.565 C 38.333 36.681,38.139 36.957,37.901 37.179 C 37.663 37.402,37.352 37.808,37.211 38.083 C 36.933 38.623,36.355 39.390,35.625 40.190 C 35.373 40.466,35.167 40.761,35.167 40.846 C 35.167 40.930,34.904 41.290,34.583 41.645 C 34.263 42.000,34.000 42.358,34.000 42.440 C 34.000 42.598,32.962 43.962,32.305 44.667 C 32.091 44.896,31.832 45.271,31.728 45.500 C 31.624 45.729,31.380 46.082,31.186 46.285 C 30.992 46.487,30.833 46.726,30.833 46.814 C 30.833 46.903,30.571 47.255,30.250 47.595 C 29.929 47.935,29.667 48.270,29.667 48.339 C 29.667 48.408,29.442 48.706,29.167 49.000 C 28.892 49.294,28.667 49.602,28.667 49.684 C 28.667 49.766,28.414 50.114,28.106 50.458 C 27.798 50.802,27.423 51.323,27.273 51.617 C 27.123 51.910,26.898 52.210,26.773 52.283 C 26.648 52.357,26.420 52.642,26.267 52.917 C 26.010 53.381,25.123 54.587,24.612 55.167 C 24.491 55.304,24.223 55.698,24.016 56.042 C 23.809 56.385,23.569 56.667,23.482 56.667 C 23.396 56.667,23.255 56.851,23.169 57.077 C 23.083 57.302,22.571 58.034,22.031 58.702 C 21.490 59.370,20.928 60.151,20.780 60.438 C 20.633 60.725,20.397 61.004,20.256 61.058 C 20.115 61.112,20.000 61.253,20.000 61.371 C 20.000 61.489,19.663 61.997,19.250 62.500 C 18.837 63.003,18.500 63.509,18.500 63.624 C 18.500 63.739,18.426 63.833,18.335 63.833 C 18.245 63.833,17.971 64.152,17.728 64.542 C 17.484 64.931,17.183 65.310,17.057 65.384 C 16.932 65.458,16.719 65.758,16.582 66.051 C 16.337 66.578,15.508 67.729,14.844 68.464 C 14.655 68.674,14.500 68.910,14.500 68.988 C 14.500 69.067,14.307 69.308,14.071 69.524 C 12.983 70.521,12.365 78.207,13.305 79.058 C 13.586 79.312,15.842 79.333,42.369 79.333 L 71.128 79.333 71.397 78.923 C 71.746 78.391,71.809 68.043,71.467 67.700 C 71.314 67.547,67.017 67.500,53.143 67.500 L 35.019 67.500 34.575 67.119 C 34.025 66.645,34.234 65.563,35.026 64.783 C 35.287 64.526,35.500 64.234,35.500 64.134 C 35.500 64.033,35.751 63.643,36.057 63.267 C 36.364 62.891,36.713 62.396,36.834 62.167 C 36.954 61.938,37.191 61.652,37.360 61.532 C 37.529 61.412,37.667 61.213,37.667 61.088 C 37.667 60.963,37.892 60.649,38.167 60.390 C 38.442 60.130,38.667 59.824,38.667 59.709 C 38.667 59.595,38.919 59.219,39.227 58.875 C 39.536 58.531,39.913 58.006,40.065 57.708 C 40.217 57.410,40.419 57.167,40.513 57.167 C 40.607 57.167,40.788 56.917,40.916 56.612 C 41.043 56.307,41.265 55.959,41.409 55.840 C 41.552 55.721,41.833 55.332,42.033 54.977 C 42.233 54.621,42.570 54.217,42.782 54.078 C 42.993 53.939,43.169 53.696,43.172 53.538 C 43.178 53.192,43.552 52.667,43.792 52.667 C 43.887 52.667,44.007 52.496,44.059 52.287 C 44.111 52.078,44.420 51.598,44.744 51.219 C 45.068 50.840,45.333 50.463,45.333 50.380 C 45.333 50.297,45.558 50.013,45.833 49.750 C 46.108 49.487,46.333 49.173,46.333 49.052 C 46.333 48.932,46.485 48.682,46.671 48.496 C 46.856 48.310,47.238 47.785,47.518 47.329 C 47.799 46.873,48.096 46.500,48.179 46.500 C 48.261 46.500,48.439 46.236,48.574 45.914 C 48.708 45.592,48.937 45.283,49.082 45.227 C 49.227 45.172,49.446 44.892,49.568 44.605 C 49.691 44.318,49.954 43.896,50.154 43.667 C 50.610 43.144,51.519 41.898,51.784 41.434 C 51.894 41.241,52.141 40.896,52.332 40.667 C 53.150 39.688,53.839 38.713,54.069 38.208 C 54.205 37.910,54.394 37.667,54.488 37.667 C 54.583 37.667,54.814 37.385,55.001 37.042 C 55.367 36.373,56.289 35.133,56.834 34.577 C 57.017 34.391,57.167 34.144,57.167 34.028 C 57.167 33.913,57.355 33.630,57.584 33.401 C 57.814 33.171,58.144 32.705,58.318 32.366 C 58.492 32.027,58.829 31.568,59.067 31.346 C 59.305 31.124,59.500 30.855,59.500 30.748 C 59.500 30.642,59.725 30.355,60.000 30.110 C 60.275 29.865,60.500 29.564,60.500 29.441 C 60.500 29.319,60.658 29.075,60.851 28.901 C 61.044 28.726,61.347 28.299,61.525 27.951 C 61.702 27.603,62.032 27.159,62.257 26.963 C 62.482 26.767,62.667 26.492,62.667 26.351 C 62.667 26.211,62.860 25.906,63.097 25.673 C 63.535 25.242,64.102 24.471,64.625 23.594 C 64.785 23.325,65.103 22.912,65.330 22.677 C 65.558 22.442,65.858 22.053,65.997 21.812 C 66.543 20.868,67.517 19.500,67.644 19.500 C 67.717 19.500,67.881 19.294,68.009 19.042 C 68.137 18.790,68.450 18.337,68.704 18.036 C 68.958 17.735,69.167 17.406,69.167 17.306 C 69.167 17.206,69.410 16.833,69.708 16.479 C 71.775 14.017,71.750 14.101,71.750 9.535 C 71.750 6.563,71.709 5.962,71.500 5.830 C 71.255 5.675,16.841 5.630,16.042 5.784 " stroke="none" fill="#faf5f6" fill-rule="evenodd"></path><path id="path1" d="M2.833 0.333 C 2.833 0.618,2.722 0.667,2.072 0.667 C 0.902 0.667,0.667 0.863,0.667 1.839 C 0.667 2.556,0.622 2.667,0.333 2.667 C 0.001 2.667,0.000 2.778,0.000 42.667 C 0.000 82.556,0.001 82.667,0.333 82.667 C 0.601 82.667,0.667 82.778,0.667 83.231 C 0.667 83.745,0.720 83.806,1.250 83.906 C 1.599 83.971,1.833 84.112,1.833 84.258 C 1.833 84.469,7.016 84.500,42.417 84.500 C 76.740 84.500,83.000 84.465,83.000 84.271 C 83.000 84.145,83.225 83.997,83.500 83.942 C 83.918 83.858,84.000 83.762,84.000 83.358 C 84.000 82.960,84.084 82.858,84.477 82.780 C 85.197 82.636,85.167 84.400,85.167 42.307 C 85.167 -0.040,85.204 1.833,84.352 1.833 C 84.100 1.833,84.009 1.704,83.969 1.292 C 83.921 0.797,83.862 0.745,83.292 0.698 C 82.802 0.658,82.667 0.577,82.667 0.323 C 82.667 0.004,82.141 0.000,42.750 0.000 C 2.944 0.000,2.833 0.001,2.833 0.333 M98.167 42.332 L 98.167 84.000 107.333 84.000 L 116.500 84.000 116.532 55.208 C 116.550 39.373,116.606 27.167,116.657 28.083 L 116.750 29.750 117.208 29.803 C 117.661 29.855,117.667 29.871,117.669 31.053 C 117.672 32.725,117.768 33.000,118.347 33.000 L 118.821 33.000 118.869 34.542 C 118.917 36.080,118.918 36.083,119.368 36.135 C 119.802 36.185,119.820 36.229,119.868 37.302 L 119.917 38.417 120.458 38.469 L 121.000 38.521 121.000 40.094 L 121.000 41.667 121.500 41.667 L 122.000 41.667 122.000 43.071 C 122.000 44.564,122.191 45.000,122.845 45.000 C 123.137 45.000,123.167 45.128,123.167 46.383 C 123.167 47.806,123.307 48.167,123.859 48.167 C 124.101 48.167,124.159 48.346,124.200 49.208 C 124.250 50.250,124.250 50.250,124.792 50.302 L 125.333 50.354 125.333 51.931 L 125.333 53.508 125.833 53.608 C 126.332 53.708,126.333 53.710,126.336 54.896 C 126.339 56.558,126.435 56.833,127.013 56.833 L 127.487 56.833 127.535 58.375 C 127.583 59.913,127.584 59.917,128.034 59.969 C 128.469 60.019,128.487 60.062,128.534 61.135 L 128.583 62.250 129.125 62.302 L 129.667 62.354 129.667 63.927 L 129.667 65.500 130.167 65.500 L 130.667 65.500 130.667 66.905 C 130.667 68.397,130.858 68.833,131.512 68.833 C 131.804 68.833,131.833 68.962,131.833 70.217 C 131.833 71.639,131.973 72.000,132.525 72.000 C 132.767 72.000,132.826 72.179,132.867 73.042 C 132.917 74.083,132.917 74.083,133.458 74.136 L 134.000 74.188 134.000 75.747 L 134.000 77.307 134.500 77.417 C 134.977 77.521,135.000 77.567,135.002 78.388 C 135.005 80.015,135.157 80.506,135.690 80.613 C 136.155 80.706,136.167 80.735,136.167 81.771 L 136.167 82.833 136.656 82.833 C 137.086 82.833,137.152 82.899,137.198 83.375 L 137.250 83.917 145.292 83.960 L 153.333 84.003 153.333 82.929 L 153.333 81.854 153.875 81.802 L 154.417 81.750 154.466 80.635 C 154.513 79.562,154.531 79.519,154.966 79.469 C 155.415 79.417,155.417 79.411,155.464 77.895 L 155.512 76.373 155.983 76.278 C 156.509 76.173,156.661 75.676,156.665 74.055 C 156.667 73.233,156.690 73.188,157.167 73.083 L 157.667 72.974 157.667 71.403 L 157.667 69.833 158.149 69.833 C 158.758 69.833,158.833 69.630,158.833 67.997 C 158.833 66.694,158.835 66.689,159.292 66.636 C 159.729 66.586,159.754 66.534,159.833 65.500 C 159.912 64.479,159.942 64.414,160.355 64.366 C 160.853 64.308,160.995 63.815,160.998 62.136 C 161.000 61.227,161.019 61.187,161.458 61.136 L 161.917 61.083 161.965 59.542 C 162.008 58.158,162.045 58.000,162.328 58.000 C 162.975 58.000,163.167 57.560,163.167 56.071 L 163.167 54.667 163.667 54.667 L 164.167 54.667 164.167 53.094 L 164.167 51.521 164.708 51.469 L 165.250 51.417 165.299 50.302 C 165.346 49.229,165.365 49.185,165.799 49.135 C 166.249 49.083,166.250 49.080,166.298 47.542 L 166.346 46.000 166.820 46.000 C 167.398 46.000,167.495 45.725,167.498 44.063 C 167.500 42.877,167.501 42.875,168.000 42.775 L 168.500 42.675 168.500 41.087 L 168.500 39.500 168.982 39.500 C 169.591 39.500,169.667 39.297,169.667 37.664 C 169.667 36.360,169.668 36.355,170.125 36.303 C 170.562 36.252,170.587 36.201,170.667 35.167 C 170.745 34.146,170.775 34.080,171.188 34.033 C 171.686 33.975,171.828 33.482,171.831 31.803 C 171.833 30.894,171.852 30.853,172.292 30.803 L 172.750 30.750 172.798 29.208 C 172.841 27.824,172.878 27.667,173.161 27.667 C 173.334 27.667,173.594 27.549,173.738 27.405 C 173.976 27.167,174.000 27.264,174.000 28.475 L 174.000 29.807 173.499 29.917 L 172.999 30.027 173.041 56.972 L 173.083 83.917 182.708 83.960 L 192.333 84.003 192.333 42.335 L 192.333 0.667 178.934 0.667 C 166.870 0.667,165.526 0.693,165.434 0.930 C 165.379 1.075,165.333 1.778,165.333 2.493 L 165.333 3.792 164.833 3.892 L 164.333 3.992 164.333 5.569 L 164.333 7.146 163.792 7.198 C 163.250 7.250,163.250 7.250,163.200 8.292 C 163.158 9.172,163.103 9.333,162.846 9.333 C 162.330 9.333,162.183 9.712,162.132 11.175 C 162.084 12.557,162.075 12.584,161.645 12.634 C 161.147 12.692,161.005 13.185,161.002 14.864 C 161.000 15.773,160.981 15.813,160.542 15.864 L 160.083 15.917 160.035 17.458 C 159.990 18.934,159.971 19.000,159.610 19.000 C 158.961 19.000,158.833 19.307,158.833 20.867 L 158.833 22.333 158.333 22.333 L 157.833 22.333 157.833 23.406 C 157.833 24.451,157.822 24.479,157.376 24.531 C 156.844 24.592,156.718 24.974,156.686 26.612 C 156.667 27.613,156.653 27.643,156.167 27.750 L 155.667 27.860 155.667 29.430 L 155.667 31.000 155.184 31.000 C 154.576 31.000,154.500 31.203,154.500 32.836 C 154.500 34.140,154.498 34.145,154.042 34.197 L 153.583 34.250 153.536 35.865 L 153.488 37.480 152.952 37.532 C 152.418 37.583,152.417 37.586,152.367 38.625 C 152.326 39.488,152.267 39.667,152.025 39.667 C 151.473 39.667,151.333 40.028,151.333 41.450 C 151.333 42.705,151.304 42.833,151.012 42.833 C 150.358 42.833,150.167 43.270,150.167 44.762 L 150.167 46.167 149.667 46.167 L 149.167 46.167 149.167 47.739 L 149.167 49.312 148.625 49.364 L 148.083 49.417 148.036 51.042 L 147.988 52.667 147.494 52.667 L 147.000 52.667 147.000 54.250 C 147.000 55.791,146.990 55.833,146.617 55.833 C 146.406 55.833,146.147 55.919,146.043 56.024 C 145.899 56.167,145.825 56.095,145.745 55.732 C 145.559 54.888,145.519 54.833,145.089 54.833 C 144.667 54.833,144.667 54.832,144.667 53.263 L 144.667 51.693 144.167 51.583 L 143.667 51.474 143.667 50.167 C 143.667 48.537,143.591 48.333,142.982 48.333 L 142.500 48.333 142.500 47.014 C 142.500 45.426,142.417 45.167,141.906 45.167 C 141.539 45.167,141.512 45.097,141.466 44.042 L 141.417 42.917 140.875 42.864 L 140.333 42.812 140.333 41.239 L 140.333 39.667 139.833 39.667 L 139.333 39.667 139.333 38.200 C 139.333 36.640,139.206 36.333,138.556 36.333 C 138.195 36.333,138.177 36.268,138.131 34.792 L 138.083 33.250 137.625 33.197 C 137.185 33.147,137.167 33.106,137.165 32.197 C 137.162 30.518,137.019 30.025,136.521 29.967 C 136.109 29.920,136.079 29.854,136.000 28.833 C 135.921 27.803,135.894 27.747,135.464 27.698 C 135.013 27.646,135.012 27.642,134.964 26.115 L 134.917 24.583 134.375 24.531 L 133.833 24.479 133.833 22.902 L 133.833 21.325 133.333 21.225 L 132.833 21.125 132.833 19.826 C 132.833 18.204,132.757 18.000,132.149 18.000 L 131.667 18.000 131.667 16.680 C 131.667 15.093,131.583 14.833,131.073 14.833 C 130.706 14.833,130.679 14.764,130.633 13.708 L 130.583 12.583 130.042 12.531 L 129.500 12.479 129.500 10.906 L 129.500 9.333 129.000 9.333 L 128.500 9.333 128.500 7.867 C 128.500 6.307,128.372 6.000,127.723 6.000 C 127.362 6.000,127.344 5.934,127.298 4.458 C 127.250 2.920,127.249 2.917,126.799 2.865 C 126.370 2.815,126.346 2.764,126.299 1.781 L 126.250 0.750 112.208 0.707 L 98.167 0.665 98.167 42.332 M230.500 2.250 C 230.500 3.700,230.473 3.833,230.180 3.833 C 229.390 3.833,229.333 3.952,229.333 5.601 L 229.333 7.167 228.833 7.167 L 228.333 7.167 228.333 8.250 C 228.333 9.269,228.311 9.333,227.950 9.333 C 227.304 9.333,227.167 9.641,227.167 11.096 L 227.167 12.458 226.667 12.558 L 226.167 12.658 226.167 14.246 L 226.167 15.833 225.583 15.833 L 225.000 15.833 225.000 17.406 L 225.000 18.979 224.458 19.031 L 223.917 19.083 223.867 20.208 C 223.821 21.264,223.794 21.333,223.427 21.333 C 222.917 21.333,222.833 21.593,222.833 23.180 L 222.833 24.500 222.351 24.500 C 221.742 24.500,221.667 24.703,221.667 26.336 C 221.667 27.640,221.665 27.645,221.208 27.697 C 220.765 27.748,220.748 27.787,220.701 28.865 C 220.654 29.934,220.634 29.981,220.208 30.031 C 219.670 30.094,219.540 30.469,219.517 32.031 C 219.500 33.117,219.489 33.146,219.042 33.197 C 218.583 33.250,218.583 33.250,218.536 34.759 L 218.488 36.268 217.953 36.426 L 217.417 36.583 217.369 38.125 L 217.321 39.667 216.827 39.667 L 216.333 39.667 216.333 40.750 C 216.333 41.789,216.317 41.833,215.925 41.833 C 215.426 41.833,215.169 42.579,215.168 44.028 C 215.167 44.943,215.150 44.977,214.667 45.083 L 214.167 45.193 214.167 46.763 L 214.167 48.333 213.684 48.333 C 213.076 48.333,213.000 48.537,213.000 50.169 C 213.000 51.473,212.998 51.478,212.542 51.531 C 212.098 51.582,212.082 51.620,212.034 52.698 C 211.987 53.767,211.967 53.815,211.541 53.865 C 211.003 53.928,210.873 54.303,210.850 55.864 C 210.834 56.951,210.822 56.979,210.375 57.031 L 209.917 57.083 209.869 58.625 C 209.826 60.006,209.788 60.167,209.507 60.167 C 208.724 60.167,208.667 60.288,208.667 61.934 L 208.667 63.500 208.167 63.500 L 207.667 63.500 207.667 64.583 C 207.667 65.622,207.650 65.667,207.258 65.667 C 206.760 65.667,206.502 66.412,206.501 67.854 C 206.500 68.762,206.484 68.795,206.000 68.892 L 205.500 68.992 205.500 70.569 L 205.500 72.146 204.958 72.198 C 204.417 72.250,204.417 72.250,204.367 73.292 C 204.326 74.154,204.267 74.333,204.025 74.333 C 203.473 74.333,203.333 74.694,203.333 76.117 C 203.333 77.372,203.304 77.500,203.012 77.500 C 202.358 77.500,202.167 77.936,202.167 79.429 L 202.167 80.833 201.667 80.833 L 201.167 80.833 201.167 82.417 L 201.167 84.000 211.800 84.000 C 223.990 84.000,222.833 84.194,222.833 82.144 L 222.833 80.689 223.292 80.636 L 223.750 80.583 223.798 79.042 C 223.841 77.658,223.878 77.500,224.161 77.500 C 224.807 77.500,225.000 77.059,225.000 75.582 L 225.000 74.189 225.458 74.136 C 225.916 74.083,225.917 74.079,226.000 72.507 C 226.080 70.999,226.101 70.926,226.494 70.834 C 226.993 70.717,227.128 70.297,227.150 68.792 C 227.163 67.936,227.224 67.667,227.405 67.667 C 227.880 67.667,228.167 67.160,228.167 66.321 L 228.167 65.500 242.327 65.500 L 256.488 65.500 256.536 67.125 L 256.583 68.750 257.036 68.802 C 257.487 68.854,257.488 68.858,257.536 70.385 L 257.583 71.917 258.119 71.968 L 258.655 72.020 258.702 73.635 L 258.750 75.250 259.208 75.303 L 259.667 75.355 259.669 76.803 C 259.671 78.995,259.784 79.471,260.312 79.533 C 260.742 79.582,260.751 79.610,260.799 80.992 C 260.850 82.453,260.997 82.833,261.510 82.833 C 261.729 82.833,261.827 82.982,261.864 83.375 L 261.917 83.917 272.481 83.960 C 284.090 84.007,283.500 84.062,283.500 82.930 C 283.500 82.147,283.278 81.833,282.723 81.833 C 282.362 81.833,282.344 81.768,282.298 80.292 L 282.250 78.750 281.792 78.697 C 281.352 78.647,281.333 78.606,281.331 77.697 C 281.328 76.018,281.186 75.525,280.688 75.467 C 280.275 75.420,280.245 75.354,280.167 74.333 C 280.087 73.299,280.062 73.248,279.625 73.197 C 279.168 73.145,279.167 73.140,279.167 71.836 C 279.167 70.203,279.091 70.000,278.482 70.000 L 278.000 70.000 278.000 68.430 L 278.000 66.860 277.500 66.750 L 277.000 66.640 277.000 65.334 C 277.000 63.703,276.924 63.500,276.316 63.500 L 275.833 63.500 275.833 62.180 C 275.833 60.593,275.750 60.333,275.240 60.333 C 274.873 60.333,274.846 60.264,274.799 59.208 L 274.750 58.083 274.208 58.031 L 273.667 57.979 273.667 56.406 L 273.667 54.833 273.167 54.833 L 272.667 54.833 272.667 53.429 C 272.667 51.936,272.475 51.500,271.821 51.500 C 271.530 51.500,271.500 51.372,271.500 50.117 C 271.500 48.689,271.360 48.333,270.800 48.333 C 270.542 48.333,270.500 48.182,270.500 47.250 L 270.500 46.167 269.923 46.167 L 269.345 46.167 269.298 44.542 L 269.250 42.917 268.792 42.864 C 268.335 42.811,268.333 42.806,268.333 41.503 C 268.333 39.870,268.258 39.667,267.649 39.667 L 267.167 39.667 267.167 38.097 L 267.167 36.526 266.667 36.417 C 266.180 36.310,266.166 36.280,266.147 35.278 C 266.116 33.640,265.989 33.259,265.458 33.197 C 265.011 33.146,265.000 33.118,265.000 32.072 L 265.000 31.000 264.500 31.000 L 264.000 31.000 264.000 29.533 C 264.000 27.974,263.872 27.667,263.223 27.667 C 262.862 27.667,262.844 27.601,262.798 26.125 L 262.750 24.583 262.292 24.531 L 261.833 24.478 261.833 23.084 C 261.833 21.603,261.641 21.167,260.988 21.167 C 260.696 21.167,260.667 21.038,260.667 19.783 C 260.667 18.361,260.527 18.000,259.975 18.000 C 259.733 18.000,259.674 17.821,259.633 16.958 C 259.583 15.917,259.583 15.917,259.042 15.864 L 258.500 15.812 258.500 14.235 L 258.500 12.658 258.000 12.558 L 257.500 12.458 257.500 11.159 C 257.500 9.537,257.424 9.333,256.816 9.333 L 256.333 9.333 256.333 8.014 C 256.333 6.426,256.250 6.167,255.740 6.167 C 255.373 6.167,255.346 6.097,255.299 5.042 L 255.250 3.917 254.708 3.864 L 254.167 3.812 254.167 2.239 L 254.167 0.667 242.333 0.667 L 230.500 0.667 230.500 2.250 M291.208 42.292 L 291.250 83.917 316.583 83.917 L 341.917 83.917 341.960 76.102 C 341.991 70.471,341.951 68.225,341.815 68.061 C 341.658 67.872,339.006 67.833,326.063 67.833 L 310.500 67.833 310.500 34.250 L 310.500 0.667 300.833 0.667 L 291.166 0.667 291.208 42.292 M350.708 42.292 L 350.750 83.917 375.375 83.959 L 400.000 84.001 400.000 75.917 L 400.000 67.833 385.083 67.833 L 370.167 67.833 370.167 34.250 L 370.167 0.667 360.416 0.667 L 350.666 0.667 350.708 42.292 M72.057 4.518 C 72.770 4.843,72.833 5.264,72.833 9.684 L 72.833 13.852 72.058 14.968 C 71.631 15.581,71.230 16.121,71.166 16.167 C 71.102 16.212,70.850 16.569,70.606 16.958 C 70.362 17.348,70.098 17.667,70.018 17.667 C 69.939 17.667,69.775 17.910,69.655 18.208 C 69.535 18.506,69.338 18.810,69.218 18.883 C 69.098 18.957,68.877 19.257,68.727 19.550 C 68.577 19.843,68.202 20.365,67.894 20.709 C 67.586 21.053,67.333 21.396,67.333 21.470 C 67.333 21.545,67.108 21.859,66.833 22.167 C 66.558 22.475,66.333 22.795,66.333 22.879 C 66.333 22.962,66.071 23.337,65.750 23.712 C 65.429 24.087,65.167 24.463,65.167 24.549 C 65.167 24.716,64.509 25.582,63.833 26.304 C 63.604 26.549,63.316 26.945,63.194 27.183 C 63.071 27.421,62.785 27.832,62.559 28.096 C 62.332 28.359,62.030 28.821,61.888 29.121 C 61.745 29.421,61.533 29.667,61.416 29.667 C 61.299 29.667,61.160 29.835,61.107 30.042 C 61.054 30.248,60.829 30.611,60.607 30.848 C 60.385 31.085,60.090 31.498,59.952 31.765 C 59.814 32.032,59.537 32.399,59.337 32.580 C 59.136 32.762,58.870 33.155,58.745 33.455 C 58.619 33.755,58.440 34.000,58.345 34.000 C 58.251 34.000,58.029 34.281,57.852 34.625 C 57.674 34.969,57.298 35.507,57.015 35.822 C 56.732 36.136,56.500 36.491,56.500 36.610 C 56.500 36.728,56.313 36.949,56.083 37.099 C 55.854 37.249,55.667 37.467,55.667 37.584 C 55.667 37.701,55.367 38.160,55.000 38.604 C 54.633 39.048,54.333 39.492,54.333 39.591 C 54.333 39.690,54.108 39.987,53.833 40.250 C 53.558 40.513,53.333 40.822,53.333 40.936 C 53.333 41.049,53.165 41.280,52.958 41.449 C 52.752 41.618,52.442 42.032,52.270 42.369 C 52.098 42.706,51.779 43.149,51.562 43.353 C 51.345 43.558,51.167 43.813,51.167 43.920 C 51.167 44.027,51.009 44.258,50.816 44.432 C 50.624 44.607,50.350 44.974,50.208 45.250 C 50.067 45.525,49.827 45.862,49.675 46.000 C 49.524 46.137,49.223 46.539,49.008 46.893 C 48.793 47.247,48.441 47.727,48.225 47.959 C 48.010 48.192,47.833 48.479,47.833 48.598 C 47.833 48.717,47.695 48.912,47.525 49.032 C 47.355 49.152,47.097 49.475,46.951 49.750 C 46.805 50.025,46.457 50.512,46.177 50.833 C 45.897 51.154,45.667 51.480,45.667 51.557 C 45.667 51.634,45.404 52.004,45.083 52.379 C 44.762 52.753,44.500 53.151,44.500 53.262 C 44.500 53.373,44.391 53.506,44.258 53.557 C 44.124 53.609,43.869 53.935,43.690 54.284 C 43.512 54.632,43.177 55.093,42.946 55.308 C 42.716 55.523,42.437 55.917,42.327 56.183 C 42.216 56.449,42.062 56.667,41.984 56.667 C 41.906 56.667,41.716 56.910,41.563 57.208 C 41.410 57.506,41.033 58.045,40.726 58.405 C 40.418 58.765,40.167 59.155,40.167 59.271 C 40.167 59.386,40.028 59.579,39.858 59.699 C 39.688 59.819,39.426 60.157,39.275 60.450 C 39.124 60.743,38.897 61.043,38.772 61.117 C 38.646 61.190,38.384 61.565,38.190 61.949 C 37.995 62.334,37.738 62.709,37.618 62.783 C 37.499 62.856,37.228 63.217,37.017 63.583 C 36.805 63.950,36.527 64.310,36.399 64.383 C 36.271 64.457,36.167 64.614,36.167 64.732 C 36.167 64.851,36.011 65.089,35.820 65.262 L 35.474 65.576 35.839 65.871 C 36.183 66.150,37.203 66.167,53.841 66.167 C 72.463 66.167,72.145 66.153,72.575 66.985 C 72.881 67.576,72.965 78.798,72.670 79.575 C 72.374 80.353,73.009 80.337,42.330 80.336 C 11.571 80.334,12.293 80.353,11.989 79.555 C 11.609 78.554,11.867 70.571,12.292 70.203 C 12.498 70.024,12.667 69.806,12.667 69.719 C 12.667 69.632,13.192 68.901,13.833 68.095 C 14.475 67.289,15.000 66.562,15.000 66.480 C 15.000 66.398,15.225 66.095,15.500 65.807 C 15.775 65.519,16.000 65.228,16.000 65.160 C 16.000 65.092,16.300 64.673,16.667 64.230 C 17.033 63.786,17.333 63.336,17.333 63.231 C 17.333 63.125,17.521 62.915,17.750 62.765 C 17.979 62.615,18.167 62.383,18.167 62.249 C 18.167 62.115,18.351 61.798,18.577 61.545 C 19.267 60.770,20.141 59.610,20.434 59.083 C 20.587 58.808,20.815 58.523,20.940 58.449 C 21.066 58.376,21.320 58.019,21.505 57.658 C 21.689 57.296,21.906 57.000,21.988 57.000 C 22.069 57.000,22.330 56.668,22.568 56.262 C 22.806 55.856,23.101 55.423,23.224 55.300 C 23.347 55.177,23.546 54.892,23.667 54.666 C 23.788 54.441,24.062 54.118,24.276 53.949 C 24.491 53.781,24.667 53.554,24.667 53.446 C 24.667 53.338,24.836 53.052,25.042 52.810 C 25.529 52.239,26.495 50.923,26.909 50.267 C 27.089 49.982,27.370 49.652,27.534 49.532 C 27.699 49.412,27.833 49.218,27.833 49.100 C 27.833 48.982,27.992 48.742,28.187 48.567 C 28.381 48.393,28.812 47.845,29.145 47.349 C 29.478 46.854,29.876 46.261,30.030 46.032 C 30.184 45.802,30.466 45.420,30.657 45.182 C 31.479 44.159,33.108 41.933,33.393 41.446 C 33.563 41.155,33.773 40.890,33.859 40.858 C 33.946 40.826,34.202 40.507,34.429 40.148 C 34.655 39.789,34.948 39.366,35.081 39.206 C 35.500 38.703,36.409 37.465,36.602 37.137 C 36.704 36.963,36.933 36.655,37.111 36.452 C 37.289 36.249,37.639 35.783,37.889 35.417 C 38.939 33.876,39.386 33.303,39.603 33.219 C 39.730 33.171,39.833 32.998,39.833 32.836 C 39.833 32.674,39.958 32.438,40.111 32.312 C 40.264 32.186,40.641 31.708,40.951 31.250 C 41.919 29.814,42.338 29.262,42.759 28.868 C 42.983 28.658,43.167 28.389,43.167 28.269 C 43.167 28.150,43.316 27.917,43.499 27.751 C 43.681 27.586,44.012 27.143,44.234 26.767 C 44.457 26.391,44.795 25.973,44.986 25.838 C 45.177 25.703,45.333 25.496,45.333 25.378 C 45.333 25.260,45.558 24.928,45.833 24.640 C 46.108 24.353,46.333 24.066,46.333 24.004 C 46.333 23.859,47.704 22.025,48.155 21.566 C 48.345 21.373,48.500 21.128,48.500 21.023 C 48.500 20.917,48.723 20.597,48.995 20.312 C 49.267 20.028,49.535 19.653,49.589 19.481 C 49.644 19.308,49.768 19.167,49.865 19.167 C 49.974 19.167,49.962 19.072,49.833 18.917 C 49.651 18.697,47.555 18.667,32.821 18.667 C 20.860 18.667,15.899 18.613,15.610 18.482 C 14.868 18.144,14.833 17.829,14.833 11.481 C 14.833 5.354,14.864 5.024,15.486 4.547 C 15.850 4.267,71.444 4.239,72.057 4.518 M242.916 25.428 L 243.488 25.535 243.536 27.059 L 243.583 28.583 244.042 28.636 L 244.500 28.689 244.500 30.254 L 244.500 31.818 245.083 31.928 L 245.667 32.037 245.667 33.602 L 245.667 35.167 246.167 35.167 L 246.667 35.167 246.667 36.732 C 246.667 38.381,246.724 38.500,247.514 38.500 C 247.806 38.500,247.833 38.634,247.833 40.083 L 247.833 41.667 248.333 41.667 L 248.833 41.667 248.833 43.232 C 248.833 44.881,248.890 45.000,249.680 45.000 C 249.973 45.000,250.000 45.134,250.000 46.583 L 250.000 48.167 250.500 48.167 L 251.000 48.167 251.000 49.333 L 251.000 50.500 241.740 50.500 L 232.480 50.500 232.532 49.882 C 232.573 49.382,232.662 49.245,232.994 49.167 C 233.493 49.050,233.628 48.631,233.650 47.125 C 233.663 46.269,233.724 46.000,233.905 46.000 C 234.519 46.000,234.667 45.531,234.667 43.582 L 234.667 41.688 235.208 41.636 L 235.750 41.583 235.798 40.052 C 235.845 38.524,235.847 38.521,236.298 38.469 L 236.750 38.417 236.798 36.802 L 236.845 35.187 237.381 35.135 L 237.917 35.083 237.964 33.552 C 238.012 32.024,238.013 32.021,238.464 31.969 L 238.917 31.917 238.964 30.302 L 239.012 28.687 239.548 28.635 L 240.083 28.583 240.131 27.061 L 240.179 25.539 240.673 25.440 L 241.167 25.342 241.167 23.754 L 241.167 22.167 241.667 22.167 C 241.942 22.167,242.183 22.073,242.202 21.958 C 242.222 21.844,242.262 22.553,242.291 23.535 L 242.344 25.320 242.916 25.428 " stroke="none" fill="#fc0434" fill-rule="evenodd"></path><path id="path2" d="M16.043 4.951 C 15.192 5.115,15.164 5.320,15.204 11.079 L 15.241 16.417 15.329 11.050 C 15.396 6.964,15.468 5.631,15.633 5.466 C 15.855 5.245,70.072 5.030,71.250 5.246 C 72.262 5.432,72.242 5.364,72.340 9.035 L 72.430 12.417 72.465 9.114 C 72.503 5.536,72.456 5.300,71.645 5.018 C 71.133 4.839,16.960 4.774,16.043 4.951 M72.361 13.019 C 72.346 13.351,72.183 13.812,72.000 14.045 C 71.817 14.279,71.667 14.522,71.667 14.588 C 71.667 14.653,71.235 15.267,70.708 15.952 C 70.181 16.637,69.563 17.483,69.333 17.832 C 68.665 18.849,67.788 20.057,67.465 20.406 C 67.301 20.584,67.167 20.785,67.167 20.852 C 67.167 20.919,66.972 21.205,66.735 21.487 C 66.498 21.769,66.369 22.000,66.448 22.000 C 66.528 22.000,66.683 21.869,66.794 21.708 C 66.904 21.548,67.182 21.154,67.411 20.833 C 67.641 20.512,68.110 19.846,68.456 19.353 C 69.111 18.415,69.365 18.066,70.585 16.417 C 72.237 14.185,72.522 13.668,72.454 13.024 L 72.389 12.417 72.361 13.019 M15.179 17.133 C 15.172 17.343,15.351 17.699,15.576 17.924 L 15.985 18.333 32.867 18.337 C 48.986 18.341,49.768 18.355,50.148 18.647 L 50.546 18.953 49.814 19.919 C 49.412 20.451,48.691 21.418,48.211 22.068 C 47.732 22.718,46.757 24.026,46.045 24.975 C 45.333 25.924,44.621 26.899,44.463 27.142 C 44.306 27.385,44.043 27.763,43.880 27.982 C 43.717 28.202,43.433 28.589,43.250 28.841 C 43.067 29.094,42.568 29.750,42.141 30.298 C 41.715 30.845,41.286 31.444,41.187 31.628 C 41.089 31.812,40.858 32.139,40.673 32.356 C 40.284 32.814,38.367 35.363,38.000 35.912 C 37.623 36.474,37.149 37.124,36.489 37.979 C 36.162 38.403,35.824 38.871,35.739 39.019 C 35.569 39.313,34.834 40.261,34.149 41.071 C 33.911 41.353,33.617 41.771,33.497 42.000 C 33.377 42.229,32.897 42.906,32.431 43.503 C 31.965 44.100,31.399 44.850,31.174 45.170 C 30.949 45.489,30.706 45.825,30.634 45.917 C 30.561 46.008,29.983 46.796,29.348 47.667 C 28.713 48.538,27.998 49.512,27.759 49.833 C 27.520 50.154,26.810 51.129,26.180 52.000 C 25.550 52.871,24.849 53.808,24.622 54.083 C 24.395 54.358,23.956 54.947,23.646 55.392 C 22.794 56.617,22.484 57.037,21.667 58.081 C 21.254 58.607,20.729 59.321,20.500 59.667 C 20.271 60.012,19.747 60.735,19.335 61.273 C 18.923 61.810,18.417 62.496,18.211 62.798 C 18.004 63.099,17.760 63.436,17.669 63.548 C 17.577 63.659,16.996 64.444,16.376 65.291 C 15.757 66.139,14.800 67.443,14.250 68.188 C 13.700 68.933,13.025 69.890,12.750 70.313 L 12.250 71.083 12.196 74.743 C 12.132 79.112,12.172 79.407,12.884 79.841 C 13.533 80.237,70.217 80.365,71.524 79.973 C 72.487 79.685,72.523 79.418,72.466 73.018 L 72.417 67.452 71.992 67.136 C 71.582 66.829,70.998 66.820,53.367 66.830 L 35.167 66.840 35.167 66.172 C 35.167 65.804,35.275 65.372,35.407 65.210 C 35.698 64.856,36.702 63.466,37.500 62.313 C 37.821 61.849,38.308 61.183,38.583 60.833 C 38.858 60.483,39.346 59.818,39.667 59.354 C 39.987 58.890,40.512 58.148,40.833 57.704 C 41.154 57.260,41.547 56.714,41.706 56.490 C 41.865 56.266,42.221 55.783,42.495 55.417 C 42.770 55.050,43.252 54.365,43.567 53.893 C 43.882 53.422,44.220 52.987,44.320 52.925 C 44.419 52.864,44.498 52.724,44.496 52.615 C 44.492 52.395,44.028 52.929,43.423 53.848 C 43.207 54.177,42.929 54.552,42.806 54.682 C 42.683 54.811,42.358 55.246,42.083 55.650 C 41.808 56.053,41.433 56.587,41.250 56.836 C 40.204 58.261,39.377 59.428,39.083 59.892 C 38.900 60.183,38.624 60.569,38.469 60.752 C 37.930 61.388,37.032 62.628,36.826 63.021 C 36.631 63.392,36.436 63.652,35.292 65.064 C 34.765 65.714,34.657 66.730,35.097 66.899 C 35.242 66.954,43.421 67.000,53.272 67.000 C 73.091 67.000,72.049 66.943,72.251 68.042 C 72.536 69.591,72.257 79.151,71.917 79.482 C 71.476 79.912,74.512 79.874,41.956 79.853 L 12.995 79.833 12.659 79.292 C 12.343 78.784,12.325 78.518,12.369 75.000 L 12.417 71.250 12.888 70.417 C 13.147 69.958,13.447 69.508,13.554 69.417 C 13.791 69.215,14.824 67.836,15.927 66.250 C 16.374 65.608,16.780 65.046,16.830 65.000 C 16.913 64.924,18.454 62.868,19.250 61.771 C 20.540 59.994,22.153 57.796,23.948 55.370 C 25.652 53.066,27.149 51.025,27.704 50.250 C 27.966 49.883,28.690 48.908,29.312 48.083 C 29.934 47.258,30.753 46.133,31.131 45.583 C 31.509 45.033,31.991 44.382,32.201 44.136 C 32.411 43.890,32.883 43.261,33.250 42.739 C 33.617 42.217,34.142 41.504,34.417 41.155 C 34.692 40.806,35.104 40.249,35.333 39.918 C 35.563 39.587,36.031 38.965,36.375 38.536 C 36.719 38.107,37.000 37.706,37.000 37.644 C 37.000 37.582,37.244 37.231,37.542 36.864 C 37.840 36.496,38.608 35.468,39.250 34.578 C 39.892 33.689,40.585 32.771,40.792 32.539 C 40.998 32.308,41.167 32.071,41.167 32.014 C 41.167 31.957,41.510 31.462,41.929 30.913 C 42.863 29.692,43.595 28.713,43.968 28.185 C 44.123 27.965,45.056 26.708,46.042 25.390 C 47.027 24.072,47.833 22.958,47.833 22.915 C 47.833 22.872,47.941 22.705,48.073 22.544 C 49.703 20.543,50.714 19.029,50.606 18.750 C 50.392 18.192,49.653 18.167,33.031 18.150 C 14.944 18.132,15.704 18.167,15.401 17.329 C 15.234 16.865,15.190 16.826,15.179 17.133 M65.778 22.792 C 65.530 23.135,64.954 23.942,64.500 24.583 C 64.046 25.225,63.531 25.900,63.357 26.083 C 63.183 26.267,62.944 26.604,62.826 26.833 C 62.709 27.063,62.387 27.531,62.112 27.875 C 61.836 28.219,61.650 28.539,61.698 28.587 C 61.745 28.634,62.133 28.166,62.560 27.545 C 62.986 26.924,63.715 25.929,64.179 25.333 C 64.644 24.738,65.131 24.048,65.262 23.801 C 65.392 23.554,65.687 23.149,65.916 22.901 C 66.277 22.512,66.449 22.167,66.282 22.167 C 66.254 22.167,66.027 22.448,65.778 22.792 M59.732 31.193 C 59.192 31.941,58.514 32.869,58.225 33.255 C 57.937 33.642,57.619 34.112,57.518 34.299 C 57.418 34.487,57.238 34.740,57.118 34.862 C 56.999 34.984,56.642 35.449,56.325 35.895 C 56.009 36.341,55.600 36.915,55.417 37.170 C 55.233 37.425,54.565 38.372,53.931 39.275 C 53.297 40.178,52.641 41.051,52.473 41.215 C 52.304 41.379,52.167 41.559,52.167 41.616 C 52.167 41.793,52.861 41.106,53.230 40.564 C 54.330 38.946,54.998 37.985,55.153 37.796 C 55.660 37.179,56.201 36.444,57.086 35.167 C 57.625 34.387,58.116 33.712,58.175 33.667 C 58.235 33.621,58.484 33.283,58.729 32.917 C 59.837 31.256,60.107 30.879,60.458 30.504 C 60.792 30.148,60.940 29.833,60.774 29.833 C 60.742 29.833,60.273 30.445,59.732 31.193 M51.146 43.106 C 50.653 43.807,50.046 44.650,49.796 44.981 C 49.547 45.312,49.214 45.771,49.056 46.000 C 48.899 46.229,48.332 47.017,47.798 47.750 C 47.264 48.483,46.365 49.721,45.800 50.500 C 45.235 51.279,44.695 51.969,44.600 52.033 C 44.504 52.096,44.471 52.193,44.526 52.248 C 44.640 52.362,45.132 51.787,46.083 50.426 C 46.450 49.901,46.938 49.224,47.167 48.922 C 47.396 48.619,47.883 47.947,48.250 47.428 C 49.132 46.181,50.128 44.820,50.422 44.460 C 50.553 44.301,50.858 43.857,51.100 43.473 C 51.342 43.090,51.681 42.625,51.853 42.440 C 52.138 42.135,52.262 41.833,52.104 41.833 C 52.070 41.833,51.639 42.406,51.146 43.106 " stroke="none" fill="#e87c94" fill-rule="evenodd"></path><path id="path3" d="M15.486 4.547 C 14.864 5.024,14.833 5.354,14.833 11.481 C 14.833 17.829,14.868 18.144,15.610 18.482 C 15.899 18.613,20.860 18.667,32.821 18.667 C 47.555 18.667,49.651 18.697,49.833 18.917 C 49.962 19.072,49.974 19.167,49.865 19.167 C 49.768 19.167,49.644 19.308,49.589 19.481 C 49.535 19.653,49.267 20.028,48.995 20.312 C 48.723 20.597,48.500 20.917,48.500 21.023 C 48.500 21.128,48.345 21.373,48.155 21.566 C 47.704 22.025,46.333 23.859,46.333 24.004 C 46.333 24.066,46.108 24.353,45.833 24.640 C 45.558 24.928,45.333 25.260,45.333 25.378 C 45.333 25.496,45.177 25.703,44.986 25.838 C 44.795 25.973,44.457 26.391,44.234 26.767 C 44.012 27.143,43.681 27.586,43.499 27.751 C 43.316 27.917,43.167 28.150,43.167 28.269 C 43.167 28.389,42.983 28.658,42.759 28.868 C 42.338 29.262,41.919 29.814,40.951 31.250 C 40.641 31.708,40.264 32.186,40.111 32.312 C 39.958 32.438,39.833 32.674,39.833 32.836 C 39.833 32.998,39.730 33.171,39.603 33.219 C 39.386 33.303,38.939 33.876,37.889 35.417 C 37.639 35.783,37.289 36.249,37.111 36.452 C 36.933 36.655,36.704 36.963,36.602 37.137 C 36.409 37.465,35.500 38.703,35.081 39.206 C 34.948 39.366,34.655 39.789,34.429 40.148 C 34.202 40.507,33.946 40.826,33.859 40.858 C 33.773 40.890,33.563 41.155,33.393 41.446 C 33.108 41.933,31.479 44.159,30.657 45.182 C 30.466 45.420,30.184 45.802,30.030 46.032 C 29.876 46.261,29.478 46.854,29.145 47.349 C 28.812 47.845,28.381 48.393,28.187 48.567 C 27.992 48.742,27.833 48.982,27.833 49.100 C 27.833 49.218,27.699 49.412,27.534 49.532 C 27.370 49.652,27.089 49.982,26.909 50.267 C 26.495 50.923,25.529 52.239,25.042 52.810 C 24.836 53.052,24.667 53.338,24.667 53.446 C 24.667 53.554,24.491 53.781,24.276 53.949 C 24.062 54.118,23.788 54.441,23.667 54.666 C 23.546 54.892,23.347 55.177,23.224 55.300 C 23.101 55.423,22.806 55.856,22.568 56.262 C 22.330 56.668,22.069 57.000,21.988 57.000 C 21.906 57.000,21.689 57.296,21.505 57.658 C 21.320 58.019,21.066 58.376,20.940 58.449 C 20.815 58.523,20.587 58.808,20.434 59.083 C 20.141 59.610,19.267 60.770,18.577 61.545 C 18.351 61.798,18.167 62.115,18.167 62.249 C 18.167 62.383,17.979 62.615,17.750 62.765 C 17.521 62.915,17.333 63.125,17.333 63.231 C 17.333 63.336,17.033 63.786,16.667 64.230 C 16.300 64.673,16.000 65.092,16.000 65.160 C 16.000 65.228,15.775 65.519,15.500 65.807 C 15.225 66.095,15.000 66.398,15.000 66.480 C 15.000 66.562,14.475 67.289,13.833 68.095 C 13.192 68.901,12.667 69.632,12.667 69.719 C 12.667 69.806,12.498 70.024,12.292 70.203 C 11.867 70.571,11.609 78.554,11.989 79.555 C 12.293 80.353,11.571 80.334,42.330 80.336 C 73.009 80.337,72.374 80.353,72.670 79.575 C 72.965 78.798,72.881 67.576,72.575 66.985 C 72.145 66.153,72.463 66.167,53.841 66.167 C 37.203 66.167,36.183 66.150,35.839 65.871 L 35.474 65.576 35.820 65.262 C 36.011 65.089,36.167 64.851,36.167 64.732 C 36.167 64.614,36.271 64.457,36.399 64.383 C 36.527 64.310,36.805 63.950,37.017 63.583 C 37.228 63.217,37.499 62.856,37.618 62.783 C 37.738 62.709,37.995 62.334,38.190 61.949 C 38.384 61.565,38.646 61.190,38.772 61.117 C 38.897 61.043,39.124 60.743,39.275 60.450 C 39.426 60.157,39.688 59.819,39.858 59.699 C 40.028 59.579,40.167 59.386,40.167 59.271 C 40.167 59.155,40.418 58.765,40.726 58.405 C 41.033 58.045,41.410 57.506,41.563 57.208 C 41.716 56.910,41.906 56.667,41.984 56.667 C 42.062 56.667,42.216 56.449,42.327 56.183 C 42.437 55.917,42.716 55.523,42.946 55.308 C 43.177 55.093,43.512 54.632,43.690 54.284 C 43.869 53.935,44.124 53.609,44.258 53.557 C 44.391 53.506,44.500 53.373,44.500 53.262 C 44.500 53.151,44.762 52.753,45.083 52.379 C 45.404 52.004,45.667 51.634,45.667 51.557 C 45.667 51.480,45.897 51.154,46.177 50.833 C 46.457 50.512,46.805 50.025,46.951 49.750 C 47.097 49.475,47.355 49.152,47.525 49.032 C 47.695 48.912,47.833 48.717,47.833 48.598 C 47.833 48.479,48.010 48.192,48.225 47.959 C 48.441 47.727,48.793 47.247,49.008 46.893 C 49.223 46.539,49.524 46.137,49.675 46.000 C 49.827 45.862,50.067 45.525,50.208 45.250 C 50.350 44.974,50.624 44.607,50.816 44.432 C 51.009 44.258,51.167 44.027,51.167 43.920 C 51.167 43.813,51.345 43.558,51.562 43.353 C 51.779 43.149,52.098 42.706,52.270 42.369 C 52.442 42.032,52.752 41.618,52.958 41.449 C 53.165 41.280,53.333 41.049,53.333 40.936 C 53.333 40.822,53.558 40.513,53.833 40.250 C 54.108 39.987,54.333 39.690,54.333 39.591 C 54.333 39.492,54.633 39.048,55.000 38.604 C 55.367 38.160,55.667 37.701,55.667 37.584 C 55.667 37.467,55.854 37.249,56.083 37.099 C 56.313 36.949,56.500 36.728,56.500 36.610 C 56.500 36.491,56.732 36.136,57.015 35.822 C 57.298 35.507,57.674 34.969,57.852 34.625 C 58.029 34.281,58.251 34.000,58.345 34.000 C 58.440 34.000,58.619 33.755,58.745 33.455 C 58.870 33.155,59.136 32.762,59.337 32.580 C 59.537 32.399,59.814 32.032,59.952 31.765 C 60.090 31.498,60.385 31.085,60.607 30.848 C 60.829 30.611,61.054 30.248,61.107 30.042 C 61.160 29.835,61.299 29.667,61.416 29.667 C 61.533 29.667,61.745 29.421,61.888 29.121 C 62.030 28.821,62.332 28.359,62.559 28.096 C 62.785 27.832,63.071 27.421,63.194 27.183 C 63.316 26.945,63.604 26.549,63.833 26.304 C 64.509 25.582,65.167 24.716,65.167 24.549 C 65.167 24.463,65.429 24.087,65.750 23.712 C 66.071 23.337,66.333 22.962,66.333 22.879 C 66.333 22.795,66.558 22.475,66.833 22.167 C 67.108 21.859,67.333 21.545,67.333 21.470 C 67.333 21.396,67.586 21.053,67.894 20.709 C 68.202 20.365,68.577 19.843,68.727 19.550 C 68.877 19.257,69.098 18.957,69.218 18.883 C 69.338 18.810,69.535 18.506,69.655 18.208 C 69.775 17.910,69.939 17.667,70.018 17.667 C 70.098 17.667,70.362 17.348,70.606 16.958 C 70.850 16.569,71.102 16.212,71.166 16.167 C 71.230 16.121,71.631 15.581,72.058 14.968 L 72.833 13.852 72.833 9.684 C 72.833 5.264,72.770 4.843,72.057 4.518 C 71.444 4.239,15.850 4.267,15.486 4.547 M71.645 5.018 C 72.464 5.303,72.501 5.509,72.491 9.781 L 72.482 13.750 71.832 14.667 C 70.256 16.887,69.968 17.287,69.494 17.917 C 69.218 18.283,68.730 18.958,68.410 19.417 C 68.090 19.875,67.645 20.512,67.421 20.833 C 67.196 21.154,66.860 21.583,66.673 21.786 C 66.486 21.989,66.333 22.221,66.333 22.303 C 66.333 22.385,66.147 22.652,65.920 22.898 C 65.692 23.143,65.419 23.510,65.313 23.714 C 65.207 23.917,64.700 24.637,64.185 25.314 C 63.671 25.991,62.865 27.102,62.395 27.783 C 61.924 28.463,61.381 29.189,61.186 29.396 C 60.992 29.602,60.833 29.846,60.833 29.938 C 60.833 30.029,60.665 30.284,60.458 30.504 C 60.107 30.879,59.837 31.256,58.729 32.917 C 58.484 33.283,58.235 33.621,58.175 33.667 C 58.116 33.712,57.625 34.387,57.086 35.167 C 56.201 36.444,55.660 37.179,55.153 37.796 C 54.998 37.985,54.330 38.946,53.230 40.564 C 53.035 40.849,52.717 41.226,52.521 41.401 C 52.326 41.575,52.167 41.805,52.167 41.911 C 52.167 42.017,52.026 42.255,51.853 42.440 C 51.681 42.625,51.342 43.090,51.100 43.473 C 50.858 43.857,50.553 44.301,50.422 44.460 C 50.128 44.820,49.132 46.181,48.250 47.428 C 47.883 47.947,47.396 48.619,47.167 48.922 C 46.938 49.224,46.450 49.903,46.083 50.429 C 45.717 50.955,45.229 51.618,45.000 51.902 C 44.771 52.186,44.508 52.536,44.417 52.681 C 44.120 53.149,43.008 54.732,42.495 55.417 C 42.221 55.783,41.865 56.266,41.706 56.490 C 41.547 56.714,41.154 57.260,40.833 57.704 C 40.512 58.148,39.987 58.890,39.667 59.354 C 39.346 59.818,38.858 60.483,38.583 60.833 C 38.308 61.183,37.821 61.849,37.500 62.313 C 36.702 63.466,35.698 64.856,35.407 65.210 C 35.275 65.372,35.167 65.804,35.167 66.172 L 35.167 66.840 53.367 66.830 C 70.998 66.820,71.582 66.829,71.992 67.136 L 72.417 67.452 72.466 73.018 C 72.523 79.418,72.487 79.685,71.524 79.973 C 70.217 80.365,13.533 80.237,12.884 79.841 C 12.172 79.407,12.132 79.112,12.196 74.743 L 12.250 71.083 12.750 70.313 C 13.025 69.890,13.700 68.933,14.250 68.188 C 14.800 67.443,15.757 66.139,16.376 65.291 C 16.996 64.444,17.577 63.659,17.669 63.548 C 17.760 63.436,18.004 63.099,18.211 62.798 C 18.417 62.496,18.923 61.810,19.335 61.273 C 19.747 60.735,20.271 60.012,20.500 59.667 C 20.729 59.321,21.254 58.607,21.667 58.081 C 22.484 57.037,22.794 56.617,23.646 55.392 C 23.956 54.947,24.395 54.358,24.622 54.083 C 24.849 53.808,25.550 52.871,26.180 52.000 C 26.810 51.129,27.520 50.154,27.759 49.833 C 27.998 49.512,28.713 48.538,29.348 47.667 C 29.983 46.796,30.561 46.008,30.634 45.917 C 30.706 45.825,30.949 45.489,31.174 45.170 C 31.399 44.850,31.965 44.100,32.431 43.503 C 32.897 42.906,33.377 42.229,33.497 42.000 C 33.617 41.771,33.911 41.353,34.149 41.071 C 34.834 40.261,35.569 39.313,35.739 39.019 C 35.824 38.871,36.162 38.403,36.489 37.979 C 37.149 37.124,37.623 36.474,38.000 35.912 C 38.367 35.363,40.284 32.814,40.673 32.356 C 40.858 32.139,41.089 31.812,41.187 31.628 C 41.286 31.444,41.715 30.845,42.141 30.298 C 42.568 29.750,43.067 29.094,43.250 28.841 C 43.433 28.589,43.717 28.202,43.880 27.982 C 44.043 27.763,44.306 27.385,44.463 27.142 C 44.621 26.899,45.333 25.924,46.045 24.975 C 46.757 24.026,47.732 22.718,48.211 22.068 C 48.691 21.418,49.412 20.451,49.814 19.919 L 50.546 18.953 50.148 18.647 C 49.768 18.355,48.986 18.341,32.867 18.337 L 15.985 18.333 15.576 17.924 L 15.167 17.515 15.167 11.628 C 15.167 5.284,15.189 5.116,16.043 4.951 C 16.960 4.774,71.133 4.839,71.645 5.018 " stroke="none" fill="#e56c85" fill-rule="evenodd"></path><path id="path4" d="M15.898 5.330 C 15.357 5.549,15.349 5.631,15.327 11.537 C 15.303 17.618,15.339 17.893,16.174 18.060 C 16.468 18.119,24.119 18.167,33.177 18.167 C 49.665 18.167,50.392 18.191,50.606 18.750 C 50.714 19.029,49.703 20.543,48.073 22.544 C 47.941 22.705,47.833 22.872,47.833 22.915 C 47.833 22.958,47.027 24.072,46.042 25.390 C 45.056 26.708,44.123 27.965,43.968 28.185 C 43.595 28.713,42.863 29.692,41.929 30.913 C 41.510 31.462,41.167 31.957,41.167 32.014 C 41.167 32.071,40.998 32.308,40.792 32.539 C 40.585 32.771,39.892 33.689,39.250 34.578 C 38.608 35.468,37.840 36.496,37.542 36.864 C 37.244 37.231,37.000 37.582,37.000 37.644 C 37.000 37.706,36.719 38.107,36.375 38.536 C 36.031 38.965,35.563 39.587,35.333 39.918 C 35.104 40.249,34.692 40.806,34.417 41.155 C 34.142 41.504,33.617 42.217,33.250 42.739 C 32.883 43.261,32.411 43.890,32.201 44.136 C 31.991 44.382,31.509 45.033,31.131 45.583 C 30.753 46.133,29.934 47.258,29.312 48.083 C 28.690 48.908,27.966 49.883,27.704 50.250 C 27.149 51.025,25.652 53.066,23.948 55.370 C 22.153 57.796,20.540 59.994,19.250 61.771 C 18.454 62.868,16.913 64.924,16.830 65.000 C 16.780 65.046,16.374 65.608,15.927 66.250 C 14.824 67.836,13.791 69.215,13.554 69.417 C 13.447 69.508,13.147 69.958,12.888 70.417 L 12.417 71.250 12.369 75.000 C 12.325 78.518,12.343 78.784,12.659 79.292 L 12.995 79.833 41.956 79.853 C 74.512 79.874,71.476 79.912,71.917 79.482 C 72.257 79.151,72.536 69.591,72.251 68.042 C 72.049 66.943,73.091 67.000,53.272 67.000 C 43.421 67.000,35.242 66.954,35.097 66.899 C 34.656 66.730,34.764 65.712,35.292 65.065 C 36.359 63.754,36.628 63.396,36.826 63.021 C 37.033 62.628,37.931 61.388,38.469 60.752 C 38.624 60.569,38.900 60.183,39.083 59.892 C 39.377 59.428,40.204 58.261,41.250 56.836 C 41.433 56.587,41.808 56.053,42.083 55.650 C 42.358 55.246,42.752 54.730,42.958 54.502 C 43.165 54.273,43.333 54.040,43.333 53.983 C 43.333 53.927,43.595 53.551,43.915 53.148 C 44.235 52.746,44.497 52.329,44.498 52.222 C 44.499 52.115,44.561 52.003,44.635 51.972 C 44.710 51.942,45.233 51.279,45.799 50.500 C 46.364 49.721,47.264 48.483,47.798 47.750 C 48.332 47.017,48.897 46.229,49.053 46.000 C 49.209 45.771,49.592 45.246,49.904 44.833 C 50.216 44.421,50.909 43.446,51.444 42.667 C 51.979 41.887,52.500 41.175,52.602 41.083 C 52.703 40.992,53.303 40.178,53.935 39.275 C 54.567 38.372,55.233 37.425,55.417 37.170 C 55.600 36.915,56.008 36.341,56.322 35.895 C 56.637 35.449,56.945 35.046,57.005 35.000 C 57.066 34.954,57.296 34.644,57.516 34.311 C 58.186 33.300,59.004 32.160,60.239 30.520 C 60.887 29.660,61.557 28.723,61.728 28.438 C 61.899 28.152,62.217 27.707,62.436 27.447 C 62.654 27.187,62.833 26.906,62.833 26.823 C 62.833 26.740,63.020 26.465,63.248 26.211 C 63.476 25.958,64.037 25.225,64.495 24.583 C 64.953 23.942,65.685 22.931,66.122 22.338 C 66.559 21.745,67.057 21.032,67.229 20.755 C 67.401 20.477,67.594 20.212,67.657 20.167 C 67.783 20.075,68.677 18.831,69.333 17.832 C 69.563 17.483,70.181 16.637,70.708 15.952 C 71.235 15.267,71.667 14.657,71.667 14.596 C 71.667 14.536,71.821 14.277,72.010 14.022 C 72.334 13.584,72.353 13.344,72.340 9.784 C 72.325 5.546,72.332 5.590,71.628 5.345 C 71.002 5.127,16.438 5.112,15.898 5.330 M71.500 5.830 C 71.709 5.962,71.750 6.563,71.750 9.535 C 71.750 14.101,71.775 14.017,69.708 16.479 C 69.410 16.833,69.167 17.206,69.167 17.306 C 69.167 17.406,68.958 17.735,68.704 18.036 C 68.450 18.337,68.137 18.790,68.009 19.042 C 67.881 19.294,67.717 19.500,67.644 19.500 C 67.517 19.500,66.543 20.868,65.997 21.812 C 65.858 22.053,65.558 22.442,65.330 22.677 C 65.103 22.912,64.785 23.325,64.625 23.594 C 64.102 24.471,63.535 25.242,63.097 25.673 C 62.860 25.906,62.667 26.211,62.667 26.351 C 62.667 26.492,62.482 26.767,62.257 26.963 C 62.032 27.159,61.702 27.603,61.525 27.951 C 61.347 28.299,61.044 28.726,60.851 28.901 C 60.658 29.075,60.500 29.319,60.500 29.441 C 60.500 29.564,60.275 29.865,60.000 30.110 C 59.725 30.355,59.500 30.642,59.500 30.748 C 59.500 30.855,59.305 31.124,59.067 31.346 C 58.829 31.568,58.492 32.027,58.318 32.366 C 58.144 32.705,57.814 33.171,57.584 33.401 C 57.355 33.630,57.167 33.913,57.167 34.028 C 57.167 34.144,57.017 34.391,56.834 34.577 C 56.289 35.133,55.367 36.373,55.001 37.042 C 54.814 37.385,54.583 37.667,54.488 37.667 C 54.394 37.667,54.205 37.910,54.069 38.208 C 53.839 38.713,53.150 39.688,52.332 40.667 C 52.141 40.896,51.894 41.241,51.784 41.434 C 51.519 41.898,50.610 43.144,50.154 43.667 C 49.954 43.896,49.691 44.318,49.568 44.605 C 49.446 44.892,49.227 45.172,49.082 45.227 C 48.937 45.283,48.708 45.592,48.574 45.914 C 48.439 46.236,48.261 46.500,48.179 46.500 C 48.096 46.500,47.799 46.873,47.518 47.329 C 47.238 47.785,46.856 48.310,46.671 48.496 C 46.485 48.682,46.333 48.932,46.333 49.052 C 46.333 49.173,46.108 49.487,45.833 49.750 C 45.558 50.013,45.333 50.297,45.333 50.380 C 45.333 50.463,45.068 50.840,44.744 51.219 C 44.420 51.598,44.111 52.078,44.059 52.287 C 44.007 52.496,43.887 52.667,43.792 52.667 C 43.552 52.667,43.178 53.192,43.172 53.538 C 43.169 53.696,42.993 53.939,42.782 54.078 C 42.570 54.217,42.233 54.621,42.033 54.977 C 41.833 55.332,41.552 55.721,41.409 55.840 C 41.265 55.959,41.043 56.307,40.916 56.612 C 40.788 56.917,40.607 57.167,40.513 57.167 C 40.419 57.167,40.217 57.410,40.065 57.708 C 39.913 58.006,39.536 58.531,39.227 58.875 C 38.919 59.219,38.667 59.595,38.667 59.709 C 38.667 59.824,38.442 60.130,38.167 60.390 C 37.892 60.649,37.667 60.963,37.667 61.088 C 37.667 61.213,37.529 61.412,37.360 61.532 C 37.191 61.652,36.954 61.938,36.834 62.167 C 36.713 62.396,36.364 62.891,36.057 63.267 C 35.751 63.643,35.500 64.033,35.500 64.134 C 35.500 64.234,35.287 64.526,35.026 64.783 C 34.234 65.563,34.025 66.645,34.575 67.119 L 35.019 67.500 53.143 67.500 C 67.017 67.500,71.314 67.547,71.467 67.700 C 71.809 68.043,71.746 78.391,71.397 78.923 L 71.128 79.333 42.369 79.333 C 15.842 79.333,13.586 79.312,13.305 79.058 C 12.365 78.207,12.983 70.521,14.071 69.524 C 14.307 69.308,14.500 69.067,14.500 68.988 C 14.500 68.910,14.655 68.674,14.844 68.464 C 15.508 67.729,16.337 66.578,16.582 66.051 C 16.719 65.758,16.932 65.458,17.057 65.384 C 17.183 65.310,17.484 64.931,17.728 64.542 C 17.971 64.152,18.245 63.833,18.335 63.833 C 18.426 63.833,18.500 63.739,18.500 63.624 C 18.500 63.509,18.837 63.003,19.250 62.500 C 19.663 61.997,20.000 61.489,20.000 61.371 C 20.000 61.253,20.115 61.112,20.256 61.058 C 20.397 61.004,20.633 60.725,20.780 60.438 C 20.928 60.151,21.490 59.370,22.031 58.702 C 22.571 58.034,23.083 57.302,23.169 57.077 C 23.255 56.851,23.396 56.667,23.482 56.667 C 23.569 56.667,23.809 56.385,24.016 56.042 C 24.223 55.698,24.491 55.304,24.612 55.167 C 25.123 54.587,26.010 53.381,26.267 52.917 C 26.420 52.642,26.648 52.357,26.773 52.283 C 26.898 52.210,27.123 51.910,27.273 51.617 C 27.423 51.323,27.798 50.802,28.106 50.458 C 28.414 50.114,28.667 49.766,28.667 49.684 C 28.667 49.602,28.892 49.294,29.167 49.000 C 29.442 48.706,29.667 48.408,29.667 48.339 C 29.667 48.270,29.929 47.935,30.250 47.595 C 30.571 47.255,30.833 46.903,30.833 46.814 C 30.833 46.726,30.992 46.487,31.186 46.285 C 31.380 46.082,31.624 45.729,31.728 45.500 C 31.832 45.271,32.091 44.896,32.305 44.667 C 32.962 43.962,34.000 42.598,34.000 42.440 C 34.000 42.358,34.263 42.000,34.583 41.645 C 34.904 41.290,35.167 40.930,35.167 40.846 C 35.167 40.761,35.373 40.466,35.625 40.190 C 36.355 39.390,36.933 38.623,37.211 38.083 C 37.352 37.808,37.663 37.402,37.901 37.179 C 38.139 36.957,38.333 36.681,38.333 36.565 C 38.333 36.449,38.528 36.143,38.766 35.885 C 39.548 35.039,40.500 33.760,40.500 33.557 C 40.500 33.447,40.676 33.219,40.890 33.051 C 41.105 32.882,41.379 32.558,41.499 32.330 C 41.748 31.859,42.116 31.362,43.125 30.133 C 43.515 29.658,43.833 29.176,43.833 29.061 C 43.833 28.946,43.972 28.754,44.142 28.634 C 44.312 28.515,44.575 28.192,44.728 27.917 C 44.880 27.642,45.378 26.967,45.834 26.417 C 46.290 25.867,46.815 25.135,47.001 24.792 C 47.188 24.448,47.412 24.167,47.499 24.167 C 47.587 24.167,47.777 23.936,47.923 23.654 C 48.225 23.071,49.099 21.861,49.836 21.006 C 50.109 20.688,50.333 20.340,50.333 20.233 C 50.333 20.126,50.521 19.915,50.750 19.765 C 51.268 19.426,51.316 18.554,50.848 17.977 L 50.529 17.583 33.649 17.544 C 21.997 17.517,16.599 17.448,16.218 17.323 L 15.667 17.141 15.667 11.499 L 15.667 5.857 16.042 5.784 C 16.841 5.630,71.255 5.675,71.500 5.830 " stroke="none" fill="#f4a4b4" fill-rule="evenodd"></path></g></svg>